<mxfile host="65bd71144e">
    <diagram id="12YfzruvLMtsoPJEq4jz" name="Page-1">
        <mxGraphModel dx="941" dy="666" grid="0" gridSize="10" guides="1" tooltips="1" connect="1" arrows="1" fold="1" page="1" pageScale="1" pageWidth="827" pageHeight="1169" background="#ffffff" math="0" shadow="0">
            <root>
                <mxCell id="0"/>
                <mxCell id="1" parent="0"/>
                <mxCell id="4" value="" style="edgeStyle=none;html=1;fontSize=18;fontColor=#000000;strokeColor=#000000;" edge="1" parent="1" source="2" target="3">
                    <mxGeometry relative="1" as="geometry"/>
                </mxCell>
                <mxCell id="2" value="&lt;font style=&quot;font-size: 18px&quot;&gt;Start&lt;/font&gt;" style="ellipse;whiteSpace=wrap;html=1;fillColor=#FFFFFF;strokeColor=#000000;fontColor=#000000;" vertex="1" parent="1">
                    <mxGeometry x="227" y="42" width="146" height="101" as="geometry"/>
                </mxCell>
                <mxCell id="6" value="" style="edgeStyle=none;html=1;fontSize=16;fontColor=#000000;strokeColor=#000000;" edge="1" parent="1" source="3" target="5">
                    <mxGeometry relative="1" as="geometry"/>
                </mxCell>
                <mxCell id="3" value="&lt;font style=&quot;font-size: 16px&quot;&gt;array [ ]&lt;/font&gt;" style="shape=parallelogram;perimeter=parallelogramPerimeter;whiteSpace=wrap;html=1;fixedSize=1;fillColor=#FFFFFF;strokeColor=#000000;fontColor=#000000;" vertex="1" parent="1">
                    <mxGeometry x="240" y="187" width="120" height="60" as="geometry"/>
                </mxCell>
                <mxCell id="8" value="" style="edgeStyle=none;html=1;fontSize=16;fontColor=#000000;strokeColor=#000000;" edge="1" parent="1" source="5" target="7">
                    <mxGeometry relative="1" as="geometry"/>
                </mxCell>
                <mxCell id="5" value="&lt;font style=&quot;font-size: 16px;&quot;&gt;i = 0&lt;br style=&quot;font-size: 16px;&quot;&gt;size = array.Length&lt;br style=&quot;font-size: 16px;&quot;&gt;&lt;/font&gt;" style="whiteSpace=wrap;html=1;fillColor=#FFFFFF;strokeColor=#000000;fontColor=#000000;fontSize=16;" vertex="1" parent="1">
                    <mxGeometry x="196.5" y="291" width="207" height="96" as="geometry"/>
                </mxCell>
                <mxCell id="10" value="" style="edgeStyle=none;html=1;fontSize=16;fontColor=#000000;strokeColor=#000000;" edge="1" parent="1" source="7" target="9">
                    <mxGeometry relative="1" as="geometry"/>
                </mxCell>
                <mxCell id="11" value="&lt;font color=&quot;#ffffff&quot;&gt;true&lt;/font&gt;" style="edgeLabel;html=1;align=center;verticalAlign=middle;resizable=0;points=[];fontSize=16;fontColor=#000000;" vertex="1" connectable="0" parent="10">
                    <mxGeometry x="-0.181" y="1" relative="1" as="geometry">
                        <mxPoint as="offset"/>
                    </mxGeometry>
                </mxCell>
                <mxCell id="7" value="i &amp;lt; array.Length" style="rhombus;whiteSpace=wrap;html=1;fontSize=16;fillColor=#FFFFFF;strokeColor=#000000;fontColor=#000000;" vertex="1" parent="1">
                    <mxGeometry x="207.75" y="421" width="184.5" height="126" as="geometry"/>
                </mxCell>
                <mxCell id="13" value="" style="edgeStyle=none;html=1;fontSize=16;fontColor=#FFFFFF;strokeColor=#000000;" edge="1" parent="1" source="9" target="12">
                    <mxGeometry relative="1" as="geometry"/>
                </mxCell>
                <mxCell id="14" value="false" style="edgeLabel;html=1;align=center;verticalAlign=middle;resizable=0;points=[];fontSize=16;fontColor=#FFFFFF;" vertex="1" connectable="0" parent="13">
                    <mxGeometry x="-0.2127" relative="1" as="geometry">
                        <mxPoint y="1" as="offset"/>
                    </mxGeometry>
                </mxCell>
                <mxCell id="16" value="" style="edgeStyle=none;html=1;fontSize=16;fontColor=#FFFFFF;strokeColor=#000000;" edge="1" parent="1" source="9" target="15">
                    <mxGeometry relative="1" as="geometry"/>
                </mxCell>
                <mxCell id="17" value="true" style="edgeLabel;html=1;align=center;verticalAlign=middle;resizable=0;points=[];fontSize=16;fontColor=#FFFFFF;" vertex="1" connectable="0" parent="16">
                    <mxGeometry x="0.0096" y="-3" relative="1" as="geometry">
                        <mxPoint as="offset"/>
                    </mxGeometry>
                </mxCell>
                <mxCell id="9" value="array [ i ].Length &amp;lt; = 3" style="rhombus;whiteSpace=wrap;html=1;fontSize=16;fillColor=#FFFFFF;strokeColor=#000000;fontColor=#000000;" vertex="1" parent="1">
                    <mxGeometry x="203.25" y="592" width="193.5" height="140" as="geometry"/>
                </mxCell>
                <mxCell id="19" style="edgeStyle=none;html=1;entryX=0;entryY=0.5;entryDx=0;entryDy=0;fontSize=16;fontColor=#FFFFFF;strokeColor=#000000;" edge="1" parent="1" source="12" target="7">
                    <mxGeometry relative="1" as="geometry">
                        <Array as="points">
                            <mxPoint x="97" y="807"/>
                            <mxPoint x="97" y="484"/>
                        </Array>
                    </mxGeometry>
                </mxCell>
                <mxCell id="12" value="i = i + 1" style="whiteSpace=wrap;html=1;fontSize=16;fillColor=#FFFFFF;strokeColor=#000000;fontColor=#000000;" vertex="1" parent="1">
                    <mxGeometry x="240" y="777" width="120" height="60" as="geometry"/>
                </mxCell>
                <mxCell id="18" style="edgeStyle=none;html=1;entryX=1;entryY=0.75;entryDx=0;entryDy=0;fontSize=16;fontColor=#FFFFFF;strokeColor=#000000;" edge="1" parent="1" source="15" target="12">
                    <mxGeometry relative="1" as="geometry">
                        <Array as="points">
                            <mxPoint x="533" y="822"/>
                        </Array>
                    </mxGeometry>
                </mxCell>
                <mxCell id="15" value="array [ i ]" style="whiteSpace=wrap;html=1;fontSize=16;fillColor=#FFFFFF;strokeColor=#000000;fontColor=#000000;" vertex="1" parent="1">
                    <mxGeometry x="470" y="628" width="125.5" height="76" as="geometry"/>
                </mxCell>
            </root>
        </mxGraphModel>
    </diagram>
</mxfile>